<svg xmlns="http://www.w3.org/2000/svg" width="520" height="220" viewBox="0 0 520 220" role="img" aria-labelledby="title desc">
  <title id="title">Jois brand logo</title>
  <desc id="desc">Playful Jois logotype with a smiling face for the letter O and a waving hand above the letter I.</desc>
  <defs>
    <radialGradient id="faceGradient" cx="38%" cy="35%" r="75%">
      <stop offset="0%" stop-color="#ffe082" />
      <stop offset="55%" stop-color="#ffca28" />
      <stop offset="100%" stop-color="#ffb300" />
    </radialGradient>
    <linearGradient id="mouthGradient" x1="0%" y1="0%" x2="0%" y2="100%">
      <stop offset="0%" stop-color="#ef5350" />
      <stop offset="100%" stop-color="#b71c1c" />
    </linearGradient>
  </defs>
  <g transform="translate(0 10)">
    <text x="24" y="162" fill="#ff2f8e" font-size="170" font-family="'Baloo 2','Fredoka One','Poppins','Segoe UI',sans-serif" font-weight="700">J</text>
    <g transform="translate(150 20)">
      <circle cx="110" cy="90" r="82" fill="url(#faceGradient)" />
      <circle cx="80" cy="70" r="16" fill="#ffffff" />
      <circle cx="140" cy="70" r="16" fill="#ffffff" />
      <circle cx="82" cy="72" r="8" fill="#1f2933" />
      <circle cx="142" cy="72" r="8" fill="#1f2933" />
      <path d="M70 112c15 24 75 24 90 0" fill="#1f2933" />
      <path d="M84 116c10 13 52 13 62 0" fill="url(#mouthGradient)" />
      <circle cx="96" cy="64" r="4" fill="#1f2933" />
      <circle cx="152" cy="64" r="4" fill="#1f2933" />
      <path d="M78 118c10 15 54 15 64 0" fill="#fbe9e7" opacity="0.5" />
      <circle cx="72" cy="62" r="6" fill="#ffffff" opacity="0.8" />
      <circle cx="148" cy="62" r="6" fill="#ffffff" opacity="0.8" />
    </g>
    <g transform="translate(290 12)">
      <rect x="0" y="74" width="46" height="120" rx="22" fill="#2ec866" />
      <rect x="6" y="82" width="34" height="104" rx="17" fill="#1f8d49" opacity="0.35" />
      <circle cx="23" cy="46" r="26" fill="#2ec866" />
      <g fill="#2ec866">
        <circle cx="16" cy="16" r="9" />
        <circle cx="32" cy="14" r="9" />
        <circle cx="44" cy="22" r="8" />
        <circle cx="4" cy="24" r="8" />
        <circle cx="20" cy="32" r="7" />
      </g>
      <circle cx="23" cy="46" r="18" fill="#3dd175" />
    </g>
    <text x="372" y="162" fill="#2fb5ff" font-size="170" font-family="'Baloo 2','Fredoka One','Poppins','Segoe UI',sans-serif" font-weight="700">s</text>
  </g>
</svg>
